<svg width="28" height="27" viewBox="0 0 28 27" fill="none" xmlns="http://www.w3.org/2000/svg">
<g clip-path="url(#clip0_2201_16929)">
<path fill-rule="evenodd" clip-rule="evenodd" d="M8.41074 20.7715C8.29357 20.6133 8.18678 20.4565 8.08669 20.3009C8.36317 20.4564 8.68191 20.5462 9.02228 20.5462C10.0724 20.5462 10.9236 19.7019 10.9236 18.6605C10.9236 17.6189 10.0724 16.7745 9.02228 16.7745C8.13781 16.7745 7.39657 17.3746 7.18412 18.1858C6.24371 13.684 11.9193 10.783 11.9193 10.783C11.9193 10.783 0.938504 12.3241 1.77654 19.076C1.97242 20.6539 2.79565 22.0806 3.99203 23.1386C10.9947 29.3307 21.6002 25.0891 21.6002 25.0891C21.6002 25.0891 12.1792 25.8625 8.41074 20.7715Z" fill="#385FE3"/>
<path fill-rule="evenodd" clip-rule="evenodd" d="M22.5154 16.5354C22.5326 16.2267 22.4716 15.9097 22.3197 15.613C21.8511 14.6979 20.7074 14.325 19.7653 14.7802C18.8232 15.2354 18.4394 16.3461 18.9081 17.2612C19.3028 18.032 20.1761 18.4157 21.005 18.2463C17.3523 21.0334 12.1953 17.3553 12.1953 17.3553C12.1953 17.3553 18.4898 26.2508 24.2234 22.5698C25.5633 21.7097 26.4866 20.3685 26.9096 18.8637C29.3857 10.0551 20.8161 2.66667 20.8161 2.66667C20.8161 2.66667 25.72 10.5386 22.7965 16.0475C22.7056 16.2188 22.6115 16.3802 22.5154 16.5354Z" fill="#AFA899"/>
<path fill-rule="evenodd" clip-rule="evenodd" d="M11.2867 5.74791C11.4832 5.73281 11.6729 5.72563 11.8582 5.72307C11.5806 5.8699 11.337 6.08491 11.1586 6.36336C10.6082 7.22243 10.8829 8.34997 11.7719 8.88178C12.6609 9.41347 13.8277 9.14817 14.378 8.2891C14.8415 7.56541 14.7178 6.65264 14.1366 6.06458C18.4724 7.59378 17.9744 13.7183 17.9744 13.7183C17.9744 13.7183 22.4133 3.94757 16.2107 1.18577C14.7611 0.54049 13.1118 0.485458 11.5818 0.924127C2.62647 3.49186 0.689236 14.3344 0.689236 14.3344C0.689236 14.3344 4.96612 6.23175 11.2867 5.74791Z" fill="#FF9B42"/>
</g>
<defs>
<clipPath id="clip0_2201_16929">
<rect width="26.6667" height="25.8677" fill="white" transform="translate(0.665364 0.634114)"/>
</clipPath>
</defs>
</svg>
