<svg width="32" height="32" viewBox="0 0 32 32" fill="none" xmlns="http://www.w3.org/2000/svg">
<path d="M16.0487 6.71427C16.0607 6.71437 17.5039 6.72747 18.8182 7.30411C18.8332 7.31069 20.0935 7.86748 21.0653 8.86563C21.0653 8.86563 22.0391 9.86591 22.5731 11.1557C22.5731 11.1557 23.1249 12.4887 23.1249 13.9379V14.5717C23.1249 14.601 23.13 18.284 24.288 20.2846C24.288 20.2846 24.4789 20.6165 24.4794 20.9984C24.4794 20.9984 24.4803 21.3811 24.2899 21.7123C24.2899 21.7123 24.0988 22.0438 23.7684 22.2358C23.7571 22.2422 23.4318 22.4277 23.0565 22.4291H8.94617C8.93463 22.429 8.55663 22.4247 8.23132 22.2358C8.23132 22.2358 7.90131 22.0434 7.71082 21.7123C7.71082 21.7123 7.52005 21.3806 7.52039 20.9984C7.52046 20.9849 7.52421 20.6104 7.71179 20.2856C7.72442 20.2636 8.87484 18.2563 8.87488 14.5717V13.8568C8.87489 13.8303 8.87804 12.42 9.41882 11.1156C9.42688 11.0963 9.97291 9.79177 10.9755 8.79337C10.9915 8.77748 11.9961 7.78264 13.3046 7.24649C13.335 7.2341 14.64 6.70643 16.0487 6.71427ZM16.0409 8.14298C16.0409 8.14298 14.9005 8.13651 13.8456 8.56876C13.8328 8.57401 12.7861 9.00577 11.9833 9.80509C11.9833 9.80509 11.1748 10.6104 10.7382 11.6635C10.7274 11.6896 10.3021 12.7304 10.3036 13.8568V14.5717C10.3036 14.6025 10.2986 18.6695 8.9491 21.0004H23.0507C23.0507 21.0004 21.6962 18.6597 21.6962 14.5717V13.9379C21.6962 13.9379 21.6965 11.5614 20.0419 9.86173C20.0219 9.84131 18.3712 8.16073 16.0409 8.14298Z" fill="#1C1C1C"/>
<path d="M19.5714 22.4286V21.7143C19.5714 21.3198 19.2516 21 18.8572 21C18.4627 21 18.1429 21.3198 18.1429 21.7143V22.4286C18.1429 23.3162 17.5152 23.9438 17.5152 23.9438C16.8876 24.5714 16 24.5714 16 24.5714C15.1124 24.5714 14.4848 23.9438 14.4848 23.9438C13.8572 23.3162 13.8572 22.4286 13.8572 22.4286V21.7143C13.8572 21.3198 13.5374 21 13.1429 21C12.7484 21 12.4286 21.3198 12.4286 21.7143L12.4286 22.4286C12.4286 23.9079 13.4746 24.954 13.4746 24.954C14.5207 26 16 26 16 26C17.4794 26 18.5254 24.954 18.5254 24.954C19.5714 23.9079 19.5714 22.4286 19.5714 22.4286Z" fill="#1C1C1C"/>
</svg>
