<svg width="24" height="24" viewBox="0 0 24 24" fill="none" xmlns="http://www.w3.org/2000/svg">
<path d="M9.22675 9.14281C9.45065 8.5063 9.8926 7.96958 10.4743 7.6277C11.056 7.28582 11.74 7.16085 12.405 7.27492C13.07 7.38899 13.6732 7.73474 14.1078 8.25093C14.5423 8.76712 14.7801 9.42045 14.7791 10.0952C14.7791 12 11.922 12.9523 11.922 12.9523M11.9982 16.7619H12.0077M21.522 12C21.522 17.2598 17.258 21.5238 11.9982 21.5238C6.73832 21.5238 2.47437 17.2598 2.47437 12C2.47437 6.7401 6.73832 2.47614 11.9982 2.47614C17.258 2.47614 21.522 6.7401 21.522 12Z" stroke="#1C1C1C" stroke-width="1.63265" stroke-linecap="round" stroke-linejoin="round"/>
</svg>
