<svg width="21" height="14" viewBox="0 0 21 14" fill="none" xmlns="http://www.w3.org/2000/svg">
<path d="M0.829113 9.28882C0.829113 9.28882 0.860356 9.07012 0.874805 8.98069C1.04508 7.95008 1.38914 6.97921 1.86832 6.0556C2.24167 5.33546 2.69626 4.66999 3.24652 4.07053C3.41132 3.89088 3.56284 3.70421 3.73858 3.548C3.77841 3.58041 3.85185 3.62571 3.88856 3.66164C4.76452 4.52003 5.63932 5.37998 6.51607 6.23798C6.99369 6.70545 7.47522 7.16901 7.9548 7.63413C7.81966 7.8048 7.63339 7.9821 7.48928 8.17463C7.08469 8.71474 6.82147 9.3103 6.70587 9.97264C6.56332 10.7892 6.0115 11.254 5.17966 11.254C4.24394 11.254 3.30783 11.2493 2.37211 11.2555C1.66134 11.2602 1.12787 10.9927 0.852154 10.3077C0.835361 10.2659 0.824461 10.2468 0.809586 10.2066C0.685155 9.87038 0.829113 9.28882 0.829113 9.28882Z" fill="url(#paint0_linear_2384_131)"/>
<path d="M17.6981 3.47473C17.9352 3.65828 18.1344 3.88127 18.3277 4.10622C19.4981 5.46527 20.2792 7.01686 20.6201 8.78441C20.6685 9.03513 20.6756 9.29366 20.7591 9.53774V10.1232C20.6873 10.2794 20.6275 10.443 20.5408 10.5902C20.2569 11.0714 19.8004 11.2452 19.2724 11.2494C18.2515 11.258 17.2303 11.2639 16.2098 11.2471C15.4873 11.2354 14.9687 10.7527 14.8301 10.0021C14.7562 9.60335 14.641 9.22063 14.4598 8.85822C14.4981 8.79065 14.534 8.72192 14.575 8.65592C15.2221 7.60773 15.8708 6.56071 16.5164 5.51135C16.7183 5.18291 16.7046 5.00366 16.4734 4.69983C16.8819 4.29133 17.2904 3.88283 17.6989 3.47433L17.6981 3.47473Z" fill="url(#paint1_linear_2384_131)"/>
<path d="M7.95509 7.63504C7.47552 7.16991 6.99399 6.70635 6.51636 6.23888C5.63962 5.38128 4.76482 4.52093 3.88885 3.66254C3.85214 3.62661 3.77867 3.58132 3.73884 3.5489C3.89505 3.35364 4.11575 3.18531 4.31063 3.02129C5.54237 1.98403 6.94947 1.28967 8.51707 0.928815C9.25596 0.758934 10.0066 0.66091 10.7681 0.681218C10.7681 2.64208 10.7681 4.60334 10.7685 6.5642C9.73671 6.58177 8.82442 6.91568 8.04062 7.59208C8.01719 7.61239 7.9836 7.62098 7.9547 7.63504H7.95509Z" fill="url(#paint2_linear_2384_131)"/>
<path d="M10.7688 6.56531C10.7688 4.60444 10.7688 2.64319 10.7684 0.682325C12.5149 0.666704 14.1442 1.10644 15.6688 1.94726C16.3609 2.32881 16.9943 2.79237 17.5739 3.32896C17.6207 3.37231 17.6793 3.40746 17.698 3.47541C17.2896 3.88391 16.8811 4.29241 16.4726 4.7009C16.2214 4.50564 15.9672 4.50564 15.6985 4.67161C14.5238 5.39644 13.3471 6.11815 12.1712 6.84063C11.7252 6.64029 11.2492 6.59264 10.7692 6.56531H10.7688Z" fill="url(#paint3_linear_2384_131)"/>
<path fill-rule="evenodd" clip-rule="evenodd" d="M13.2474 6.18076C12.8883 6.40125 12.5293 6.62174 12.1704 6.84238H12.17C11.9107 7.00502 11.6514 7.16756 11.392 7.3301C11.1325 7.49268 10.8731 7.65525 10.6137 7.81793C9.26916 7.97845 8.38229 8.79037 8.17648 10.0502C7.9242 11.5928 9.2012 13.0545 10.7645 13.0128V13.0132C11.2179 13.0382 11.6389 12.9222 12.029 12.7011C12.8624 12.2282 13.274 11.4842 13.3822 10.552C13.3952 10.5332 13.4085 10.5145 13.4218 10.4957C13.4495 10.4566 13.4773 10.4175 13.5029 10.3771C13.7337 10.0118 13.9639 9.64609 14.1941 9.28042C14.2821 9.14061 14.3701 9.00081 14.4582 8.86104C14.47 8.84015 14.4816 8.81915 14.4933 8.79814C14.5193 8.75123 14.5453 8.70434 14.5734 8.65875C14.7891 8.30933 15.005 7.96004 15.221 7.61075C15.6528 6.91224 16.0846 6.21373 16.5147 5.51418C16.7166 5.18535 16.7029 5.0061 16.4718 4.70265C16.2206 4.50778 15.9664 4.50739 15.6977 4.67336C14.8818 5.17696 14.0646 5.67886 13.2474 6.18076ZM10.6818 7.82198L10.6178 7.81817C10.6392 7.81949 10.6605 7.82074 10.6818 7.82198Z" fill="#5CAEFF"/>
<defs>
<linearGradient id="paint0_linear_2384_131" x1="6.238" y1="5.46161" x2="1.43001" y2="10.5397" gradientUnits="userSpaceOnUse">
<stop stop-color="#3D5BC0"/>
<stop offset="1" stop-color="#4B8DFF"/>
</linearGradient>
<linearGradient id="paint1_linear_2384_131" x1="14.0488" y1="4.99428" x2="14.1781" y2="10.8047" gradientUnits="userSpaceOnUse">
<stop stop-color="#3D5BC0"/>
<stop offset="1" stop-color="#4B8DFF"/>
</linearGradient>
<linearGradient id="paint2_linear_2384_131" x1="9.09135" y1="2.40569" x2="4.78408" y2="7.32979" gradientUnits="userSpaceOnUse">
<stop stop-color="#3D5BC0"/>
<stop offset="1" stop-color="#4B8DFF"/>
</linearGradient>
<linearGradient id="paint3_linear_2384_131" x1="16.0448" y1="2.21098" x2="12.3066" y2="6.96934" gradientUnits="userSpaceOnUse">
<stop stop-color="#3D5BC0"/>
<stop offset="1" stop-color="#4B8DFF"/>
</linearGradient>
</defs>
</svg>
