<svg width="24" height="24" viewBox="0 0 24 24" fill="none" xmlns="http://www.w3.org/2000/svg">
<path d="M9.95856 13.9353C9.91906 14.0638 9.7477 14.0282 9.6559 14.0894C9.22302 14.3765 8.89086 14.7532 8.61878 15.1888C8.21094 15.8409 7.99283 16.5492 7.99784 17.322C7.10983 17.3237 6.22183 17.3265 5.33382 17.3276C4.45972 17.3282 3.58563 17.3287 2.71097 17.3259C2.28255 17.3243 2.00713 17.0494 2.00546 16.6227C2.00324 15.9288 1.99712 15.235 2.00769 14.5412C2.03774 12.6177 3.5745 10.9302 5.48349 10.7032C6.60908 10.5691 7.62784 10.8339 8.49637 11.5545C9.22302 12.1576 9.78218 12.9532 9.95856 13.9075V13.9353Z" fill="url(#paint0_linear_2384_150)"/>
<path d="M8.66566 6.67128C8.67734 8.15129 7.416 9.3403 5.9983 9.33474C4.52942 9.32918 3.33428 8.1307 3.33762 6.65848C3.34096 5.19905 4.54055 4.00948 6.0022 4.00336C7.40542 3.9978 8.68235 5.18793 8.66566 6.67072V6.67128Z" fill="url(#paint1_linear_2384_150)"/>
<path d="M15.9913 17.3348C15.9618 16.1574 15.5289 15.1609 14.6637 14.3542C14.4768 14.18 14.2171 14.101 14.0485 13.9063C14.472 11.9288 16.2311 10.549 18.2447 10.6742C20.216 10.7966 21.7283 12.3094 21.9458 14.1411C22.0477 14.9962 21.9803 15.8581 21.9803 16.7166C21.9803 17.0683 21.6676 17.3259 21.2932 17.327C20.3991 17.3292 19.5049 17.3259 18.6108 17.327C17.7378 17.3281 16.8648 17.332 15.9913 17.3348Z" fill="url(#paint2_linear_2384_150)"/>
<path d="M20.6556 6.67672C20.659 8.04434 19.52 9.32405 18.0517 9.33184C16.5183 9.34018 15.3226 8.15395 15.3276 6.65335C15.332 5.24567 16.5149 4.02772 17.8759 4.00379C19.5734 3.97486 20.6612 5.3397 20.6551 6.67616L20.6556 6.67672Z" fill="url(#paint3_linear_2384_150)"/>
<path d="M9.95587 13.0773C9.95587 13.0773 10.2398 12.9003 10.4029 12.8325C11.3543 12.4369 12.3096 12.3851 13.2922 12.7234C13.5604 12.8158 14.0732 13.0773 14.0732 13.0773C14.0732 13.0773 14.474 13.3516 14.661 13.5257C15.5261 14.3325 15.959 15.329 15.9885 16.5063C15.9896 17.1718 15.9952 17.8378 15.9902 18.5032C15.9874 18.8788 15.7048 19.1642 15.3292 19.1642C13.1036 19.1654 10.878 19.1626 8.65244 19.157C8.28522 19.1559 8.00257 18.8616 7.99979 18.4888C7.99534 17.8233 7.99589 17.1579 7.99422 16.4919C7.98922 15.719 8.20732 15.0108 8.61516 14.3587C8.88724 13.9236 9.21996 13.5463 9.65228 13.2592C9.74409 13.1986 9.95587 13.0773 9.95587 13.0773Z" fill="#5CAEFF"/>
<path d="M12.0041 5.83984C13.4758 5.84429 14.6642 7.06725 14.6604 8.51388C14.6565 9.93769 13.4752 11.1712 12.0036 11.1696C10.5174 11.1684 9.32953 9.97497 9.33176 8.48328C9.33398 7.02942 10.5364 5.83984 12.0041 5.83984Z" fill="#5CAEFF"/>
<defs>
<linearGradient id="paint0_linear_2384_150" x1="8.02844" y1="12.3228" x2="4.04482" y2="17.68" gradientUnits="userSpaceOnUse">
<stop stop-color="#3D5BC0"/>
<stop offset="1" stop-color="#4B8DFF"/>
</linearGradient>
<linearGradient id="paint1_linear_2384_150" x1="7.39461" y1="5.327" x2="4.08886" y2="9.06455" gradientUnits="userSpaceOnUse">
<stop stop-color="#3D5BC0"/>
<stop offset="1" stop-color="#4B8DFF"/>
</linearGradient>
<linearGradient id="paint2_linear_2384_150" x1="18.9147" y1="17.3386" x2="17.4538" y2="11.5274" gradientUnits="userSpaceOnUse">
<stop stop-color="#3D5BC0"/>
<stop offset="1" stop-color="#4B8DFF"/>
</linearGradient>
<linearGradient id="paint3_linear_2384_150" x1="18.5804" y1="9.33495" x2="17.226" y2="4.80289" gradientUnits="userSpaceOnUse">
<stop stop-color="#3D5BC0"/>
<stop offset="1" stop-color="#4B8DFF"/>
</linearGradient>
</defs>
</svg>
