<svg width="24" height="24" viewBox="0 0 24 24" fill="none" xmlns="http://www.w3.org/2000/svg">
<path fill-rule="evenodd" clip-rule="evenodd" d="M21.6423 13.2582C21.6444 13.2821 21.6444 13.3061 21.6423 13.33C21.6314 17.1542 21.5095 19.1828 20.2014 20.4909C18.7561 21.9339 16.4338 21.9339 11.7846 21.9339H11.7803C7.13116 21.9339 4.80877 21.9339 3.36354 20.4909C1.92048 19.0478 1.92048 16.7233 1.92048 12.0741C1.92048 7.42502 1.92048 5.10046 3.36354 3.6574C4.66947 2.35365 6.69367 2.2274 10.5026 2.21652C10.9619 2.21652 11.3384 2.55606 11.3994 2.99791L11.4146 3.11109C11.4255 3.20903 11.4386 3.31133 11.4494 3.41798C11.4799 3.69223 11.5147 4.00565 11.5735 4.3256C11.9653 6.51087 12.9992 8.37182 14.6425 9.85406C16.3641 11.4125 18.4166 12.2635 20.739 12.3876C21.2287 12.3876 21.6248 12.7728 21.6423 13.2582Z" fill="url(#paint0_linear_2384_191)"/>
<path fill-rule="evenodd" clip-rule="evenodd" d="M17.2182 14.243V16.6068C17.2182 16.9964 16.9004 17.3142 16.5087 17.3142C16.1169 17.3142 15.8013 16.9964 15.8013 16.6068V15.9538L13.899 17.8561C13.2525 18.5026 12.2056 18.5026 11.5592 17.8561L10.0595 16.3586C9.96811 16.2651 9.81792 16.2651 9.72651 16.3586L7.55866 18.5243C7.28224 18.8007 6.83169 18.8007 6.55744 18.5243C6.27884 18.2479 6.27884 17.7995 6.55744 17.5231L8.72312 15.3553C9.36955 14.7088 10.4165 14.7088 11.0651 15.3553L12.5626 16.8527C12.654 16.9463 12.8042 16.9463 12.8956 16.8527L14.7979 14.9526H14.1471C13.7553 14.9526 13.4375 14.6348 13.4375 14.243C13.4375 13.8513 13.7553 13.5335 14.1471 13.5335H16.5087C16.9004 13.5335 17.2182 13.8513 17.2182 14.243Z" fill="#F3F3F3"/>
<path d="M21.8843 10.4409C21.8843 10.6542 21.7907 10.8327 21.6427 10.9481C21.5252 11.0395 21.3706 11.0939 21.1943 11.0939H21.1834C19.0199 11.0612 17.122 10.3343 15.5179 8.88468C14.09 7.59616 13.1998 5.98986 12.8581 4.0919C12.7863 3.69577 12.7536 3.29311 12.7101 2.94703C12.7232 2.72938 12.7101 2.56396 12.7449 2.40725C12.7602 2.3376 12.7885 2.2723 12.8276 2.21571C12.9452 2.03288 13.1541 1.92188 13.3761 1.92188C13.4044 1.92188 13.4349 1.92405 13.4654 1.9284C13.6569 1.9567 13.8223 2.06553 13.9246 2.22006C13.9921 2.32236 14.0313 2.44425 14.0313 2.57484C14.0313 3.38452 14.1597 4.17243 14.4274 4.93641C14.7713 5.92891 15.3067 6.80389 16.0359 7.56133C16.9566 8.51902 18.0557 9.17416 19.3355 9.52676C19.9428 9.69653 20.5653 9.77489 21.1943 9.78142C21.3684 9.78142 21.5208 9.83583 21.6383 9.92289C21.7929 10.0404 21.8865 10.2233 21.8843 10.4409Z" fill="#5CAEFF"/>
<path d="M21.7266 8.24494C21.6875 8.29065 21.6461 8.32982 21.6004 8.3603C21.509 8.42342 21.4023 8.46042 21.2826 8.46912C21.2064 8.47348 21.1324 8.46912 21.0584 8.46912C20.5295 8.44736 20.0246 8.369 19.5436 8.22753C19.3955 8.18399 19.2497 8.13611 19.1082 8.07952C19.0451 8.05775 18.9842 8.03164 18.9232 8.00552C18.8645 7.98158 18.8079 7.95546 18.7513 7.92934C18.6947 7.9054 18.6403 7.8771 18.5859 7.85098C18.3595 7.73562 18.1397 7.60721 17.9264 7.46138C17.7131 7.31337 17.5063 7.15013 17.3061 6.97165C17.2386 6.91071 17.1733 6.85194 17.1102 6.78882C17.0579 6.73876 17.0057 6.68652 16.9578 6.63429C16.9056 6.57987 16.8533 6.52546 16.8054 6.46887C16.7859 6.44928 16.7663 6.42751 16.7489 6.40575C16.6836 6.32957 16.6204 6.25339 16.5573 6.17503C16.5573 6.17286 16.553 6.1685 16.5508 6.16633C16.4986 6.09668 16.4463 6.02703 16.3963 5.9552C16.3788 5.93126 16.3593 5.90514 16.344 5.87902C16.294 5.8072 16.2461 5.73102 16.2004 5.65701C16.1459 5.56778 16.0937 5.47636 16.0437 5.38494C15.9936 5.29353 15.9457 5.19994 15.9022 5.10417C15.8608 5.01493 15.8195 4.92351 15.7825 4.8321C15.7716 4.81251 15.7629 4.79074 15.7585 4.76898C15.7302 4.70368 15.7063 4.63621 15.6823 4.56656C15.6606 4.50997 15.641 4.4512 15.6214 4.39026C15.5975 4.31626 15.5757 4.24008 15.5539 4.1639C15.4865 3.91359 15.432 3.65458 15.395 3.38687C15.3559 3.1235 15.3428 2.85579 15.3384 2.59025C15.3384 2.46836 15.3667 2.353 15.4233 2.25506C15.5235 2.07005 15.7128 1.94381 15.9348 1.92422C16.233 1.90028 16.4942 2.06134 16.5965 2.32906C16.6161 2.37912 16.6313 2.43136 16.6379 2.48795C16.6727 2.74261 16.6596 3.00597 16.7031 3.25845C17.0057 5.00187 17.9851 6.20551 19.6219 6.86936C20.1247 7.07177 20.6536 7.15666 21.1956 7.16101C21.3196 7.16101 21.4306 7.18278 21.5264 7.23066C21.6548 7.28943 21.7571 7.39391 21.8246 7.54626C21.9356 7.79439 21.9008 8.03381 21.7266 8.24494Z" fill="#5CAEFF"/>
<path d="M21.8816 5.21629C21.8751 5.54931 21.6422 5.80179 21.3179 5.8475C21.2787 5.85403 21.2395 5.8562 21.1981 5.8562C21.1699 5.8562 21.1394 5.85185 21.1111 5.84967C20.2601 5.81702 19.5244 5.50142 18.9236 4.90287C18.2903 4.27385 17.9725 3.50117 17.9551 2.60878C17.9551 2.58266 17.9551 2.55437 17.9594 2.52825C17.9877 2.18653 18.2576 1.92969 18.6015 1.92534C18.9694 1.91881 19.2675 2.20394 19.2675 2.58484C19.2675 2.72849 19.2828 2.86779 19.3133 3.00491C19.4765 3.74059 20.0642 4.34132 20.8325 4.50238C20.9653 4.53068 21.1024 4.54592 21.2439 4.54592C21.6139 4.54592 21.8903 4.8441 21.8816 5.21629Z" fill="#5CAEFF"/>
<defs>
<linearGradient id="paint0_linear_2384_191" x1="15.576" y1="18.6744" x2="9.08162" y2="8.56274" gradientUnits="userSpaceOnUse">
<stop stop-color="#3D5BC0"/>
<stop offset="1" stop-color="#4B8DFF"/>
</linearGradient>
</defs>
</svg>
