<svg width="24" height="24" viewBox="0 0 24 24" fill="none" xmlns="http://www.w3.org/2000/svg">
<path d="M7.47916 3.35553C7.47517 3.72363 7.46947 4.09115 7.46833 4.45925C7.46662 4.9527 7.2575 5.32421 6.80679 5.52877C6.35892 5.73162 5.93442 5.66096 5.56462 5.3339C5.3196 5.11737 5.20279 4.83475 5.1988 4.50882C5.19367 4.12648 5.19367 3.74414 5.19196 3.3618C5.2102 3.1789 5.18968 2.99371 5.24439 2.81251C5.39709 2.30311 5.91789 1.94185 6.42559 1.99997C7.0199 2.06835 7.43984 2.50482 7.46491 3.07975C7.4689 3.17149 7.47403 3.2638 7.47859 3.35553H7.47916Z" fill="#5CAEFF"/>
<path d="M15.665 3.35247C15.6599 3.75589 15.6616 4.15931 15.6468 4.56216C15.6251 5.16331 15.1248 5.63738 14.522 5.63909C13.918 5.6408 13.4046 5.15191 13.3864 4.54678C13.3767 4.22826 13.3846 3.90973 13.3835 3.59121C13.3835 3.51372 13.379 3.43566 13.3767 3.35816C13.3983 3.19007 13.3744 3.02027 13.42 2.85161C13.567 2.31485 14.0866 1.93935 14.6131 2.00032C15.2132 2.06927 15.6302 2.51029 15.6519 3.0989C15.6553 3.1838 15.6604 3.26814 15.6644 3.35304L15.665 3.35247Z" fill="#5CAEFF"/>
<path d="M14.0238 7.91962C13.903 7.91791 13.7827 7.91393 13.6619 7.91393C9.87047 7.91165 6.07956 7.90994 2.28808 7.90766C2.19577 7.90766 2.10403 7.90139 2.01172 7.89797C2.01172 7.17318 2.01058 6.44896 2.01286 5.72417C2.01799 4.35037 3.00432 3.36632 4.38154 3.36005C4.65163 3.35891 4.92114 3.36176 5.19123 3.3629C5.19351 3.74524 5.19294 4.12757 5.19807 4.50991C5.20263 4.83584 5.31887 5.11846 5.56388 5.33499C5.93369 5.66206 6.35819 5.73271 6.80606 5.52986C7.25734 5.3253 7.46646 4.95379 7.4676 4.46034C7.46874 4.09225 7.47501 3.72472 7.47843 3.35663C9.44425 3.3572 11.4101 3.35777 13.3759 3.35891C13.3782 3.4364 13.3827 3.51447 13.3827 3.59196C13.3839 3.91048 13.3759 4.22957 13.3856 4.54752C13.4038 5.15265 13.9178 5.64155 14.5212 5.63984C15.1235 5.63813 15.6244 5.16405 15.646 4.56291C15.6603 4.16005 15.6585 3.75663 15.6642 3.35321C16.1526 3.37315 16.6443 3.30991 17.1275 3.43184C18.1138 3.67971 18.8306 4.56974 18.8403 5.58627C18.8477 6.36064 18.8398 7.135 18.838 7.90937C18.5611 7.91108 18.2842 7.91393 18.0073 7.9145C16.6791 7.91677 15.3503 7.91848 14.0221 7.92019L14.0238 7.91962Z" fill="url(#paint0_linear_2384_203)"/>
<path d="M18.8411 7.90812C18.5636 7.90983 18.2867 7.91268 18.0097 7.91325C16.6815 7.91553 15.3527 7.91724 14.0245 7.91895C13.9037 7.91667 13.7835 7.91325 13.6627 7.91325C9.87178 7.91097 6.0803 7.90926 2.28939 7.90699C2.19708 7.90642 2.10477 7.90015 2.01303 7.89673C2.01019 7.99644 2.00449 8.09559 2.00449 8.19474C2.00392 11.2341 2.00392 14.274 2.00335 17.3133C2.00335 17.4905 2.00791 17.6655 2.04494 17.841C2.24324 18.7789 2.80278 19.3828 3.71732 19.6615C4.0649 19.768 4.4216 19.7071 4.77431 19.7213C7.37945 19.7219 9.9846 19.723 12.5897 19.7236C12.661 19.7236 12.7316 19.7179 12.8023 19.7145C12.5162 19.2068 12.2758 18.682 12.1447 18.1082C11.6439 15.9093 12.7009 13.6176 14.7037 12.5805C14.7476 12.5577 14.7903 12.5327 14.8336 12.5087C14.6137 12.429 14.3863 12.4911 14.163 12.4734C14.0017 12.4603 13.841 12.4785 13.6775 12.4415C13.2023 12.3332 12.9846 12.1469 12.9231 11.5093C12.8935 11.2005 12.9128 10.8859 12.9202 10.5737C12.9305 10.1258 13.3208 9.74688 13.7698 9.74346C14.1174 9.74062 14.465 9.74005 14.8126 9.74346C15.2758 9.74745 15.6428 10.119 15.6473 10.5851C15.6502 10.8335 15.6342 11.0825 15.6519 11.3298C15.6769 11.6865 15.6052 12.0039 15.3493 12.2654C15.7242 12.2022 16.0855 12.0831 16.4678 12.0398C17.2371 11.9526 17.9772 12.0455 18.7032 12.295C18.7499 12.311 18.7978 12.3247 18.8451 12.3389C18.8434 10.862 18.8422 9.38506 18.8411 7.90812ZM4.7726 10.4728C4.87117 9.99019 5.19026 9.73891 5.67802 9.74802C6.05979 9.75486 6.4444 9.69845 6.82275 9.78791C7.20794 9.87851 7.45467 10.1885 7.4598 10.5839C7.46151 10.7549 7.4598 10.9252 7.4598 11.0956H7.46094C7.46094 11.2238 7.45296 11.352 7.46208 11.4797C7.49968 11.9896 7.18572 12.3743 6.67745 12.4489C6.30594 12.5036 5.92474 12.4996 5.55266 12.4489C5.10194 12.3874 4.81704 12.1127 4.75949 11.6591C4.71049 11.2666 4.69283 10.8648 4.7726 10.4734V10.4728ZM6.77717 16.9937C6.40794 16.9942 6.0387 16.9954 5.66947 16.9942C5.13214 16.9925 4.74867 16.6176 4.73499 16.074C4.72815 15.8187 4.74639 15.5623 4.731 15.3076C4.69909 14.7709 5.02046 14.3486 5.56064 14.2865C5.95266 14.2409 6.35381 14.221 6.74583 14.3048C7.20338 14.4028 7.4598 14.7338 7.46208 15.1999C7.46379 15.4837 7.46492 15.768 7.46663 16.0518C7.47803 16.5424 7.22732 16.841 6.77717 16.9937ZM11.555 16.1435C11.5504 16.6233 11.184 16.9908 10.7048 16.9942C10.3647 16.9965 10.0233 16.9982 9.68317 16.9931C9.21309 16.9862 8.83018 16.5948 8.82619 16.1219C8.82391 15.8449 8.82448 15.568 8.82562 15.2911C8.8279 14.7458 9.12078 14.3606 9.66266 14.2854C10.045 14.2324 10.4416 14.2204 10.8256 14.3019C11.3048 14.4039 11.5533 14.7247 11.555 15.2068C11.5556 15.3486 11.555 15.4905 11.555 15.6324C11.555 15.8028 11.5561 15.9731 11.555 16.1435ZM11.5578 11.4819C11.5971 12.1121 11.0997 12.474 10.5704 12.4717C10.4997 12.4711 10.4296 12.4723 10.359 12.4728C10.0917 12.4563 9.82278 12.5019 9.55611 12.4347C9.12704 12.3264 8.81935 11.9549 8.82847 11.515C8.83587 11.1623 8.78231 10.8067 8.86322 10.4574C8.97035 9.99589 9.28773 9.7446 9.75782 9.7429C10.0769 9.74176 10.396 9.74745 10.7145 9.74119C11.1675 9.73321 11.5402 10.1372 11.5538 10.5822C11.5573 10.703 11.4023 10.8227 11.4336 10.9395C11.3573 11.1161 11.547 11.303 11.5578 11.4819Z" fill="#5CAEFF"/>
<path d="M11.5555 10.9417C11.5555 10.9417 11.5447 11.3052 11.5555 11.4847C11.5948 12.1149 11.0974 12.4768 10.568 12.4739C10.4974 12.4739 10.4273 12.475 10.3566 12.4756C10.0894 12.4585 9.82046 12.5041 9.55379 12.4369C9.1253 12.3286 8.8176 11.9577 8.82672 11.5178C8.83413 11.1651 8.78057 10.8095 8.86148 10.4596C8.9686 9.9981 9.28598 9.74682 9.75607 9.74511C10.0752 9.74397 10.3937 9.7491 10.7128 9.7434C11.1658 9.73543 11.5384 10.1394 11.5515 10.5844C11.5549 10.7052 11.5555 10.9417 11.5555 10.9417Z" fill="#F3F3F3"/>
<path d="M7.46583 16.055C7.47723 16.5456 7.22652 16.8442 6.77637 16.9969C6.40714 16.9969 6.0379 16.9986 5.66867 16.9969C5.13077 16.9952 4.74787 16.6202 4.73362 16.0767C4.72678 15.8214 4.74559 15.5644 4.7302 15.3103C4.69772 14.7741 5.01966 14.3519 5.55984 14.2892C5.95129 14.2442 6.35301 14.2237 6.74446 14.3074C7.20201 14.4054 7.459 14.7365 7.46128 15.2026C7.46242 15.4863 7.46412 15.7707 7.46583 16.0544V16.055Z" fill="#F3F3F3"/>
<path d="M7.45986 11.0994C7.45986 11.2271 7.45188 11.3558 7.461 11.4829C7.49861 11.9934 7.18465 12.3781 6.67638 12.4527C6.30544 12.5074 5.92367 12.5028 5.55159 12.4521C5.10087 12.3906 4.81597 12.1159 4.75842 11.6618C4.70885 11.2692 4.69118 10.8675 4.77152 10.4766C4.8701 9.99399 5.18919 9.74271 5.67694 9.75126C6.05871 9.75809 6.44333 9.70168 6.82168 9.79114C7.20687 9.88231 7.45359 10.1923 7.45872 10.5877C7.461 10.7581 7.45872 10.929 7.45872 11.0994H7.45929H7.45986Z" fill="#F3F3F3"/>
<path d="M15.3043 12.3046C15.147 12.3741 14.9898 12.4436 14.8325 12.5137C14.6126 12.4339 14.3852 12.496 14.1618 12.4784C14.0006 12.4653 13.8399 12.4835 13.6764 12.4465C13.2012 12.3382 12.9835 12.1519 12.9219 11.5148C12.8923 11.2054 12.9117 10.8909 12.9185 10.5792C12.9288 10.1308 13.3191 9.75242 13.7687 9.749C14.1163 9.74615 14.4638 9.74558 14.8114 9.749C15.2747 9.75356 15.6416 10.1245 15.6462 10.5912C15.6485 10.8396 15.6331 11.0886 15.6507 11.3359C15.6758 11.6926 15.6046 12.01 15.3482 12.2715L15.3499 12.267C15.3345 12.2801 15.3197 12.2932 15.3043 12.3057V12.3046Z" fill="#F3F3F3"/>
<path d="M11.5529 15.637C11.5529 15.8074 11.5541 15.9777 11.5529 16.1481C11.5484 16.6273 11.182 16.9948 10.7034 16.9982C10.3626 17.0005 10.0219 17.0022 9.68112 16.9971C9.21104 16.9903 8.82813 16.5988 8.82414 16.1259C8.82186 15.8489 8.823 15.572 8.82414 15.2951C8.82642 14.7498 9.1193 14.364 9.66061 14.2888C10.043 14.2358 10.4395 14.2239 10.8236 14.3053C11.3028 14.4073 11.5512 14.7281 11.5529 15.2102C11.5529 15.3521 11.5529 15.494 11.5529 15.6364V15.637Z" fill="#F3F3F3"/>
<path d="M16.8434 11.6863C13.9955 11.6863 11.6867 13.9952 11.6867 16.8431C11.6867 19.691 13.9955 21.9998 16.8434 21.9998C19.6913 21.9998 22.0001 19.691 22.0001 16.8431C22.0001 13.9952 19.6913 11.6863 16.8434 11.6863ZM19.0433 18.2263C19.0302 18.2467 19.0171 18.267 19.0026 18.2859C18.9968 18.2917 18.9895 18.2975 18.9837 18.3048C18.9561 18.3295 18.927 18.3498 18.8979 18.3673C18.7803 18.4385 18.6509 18.4603 18.51 18.437C18.4998 18.437 18.4882 18.4341 18.4766 18.4327C18.263 18.3208 18.0479 18.2089 17.8329 18.097C17.83 18.097 17.8271 18.0941 17.8242 18.0927C17.6178 17.9575 17.3941 17.8544 17.179 17.7352C17.057 17.6669 16.9306 17.6059 16.8056 17.542C16.794 17.5333 16.7809 17.5245 16.7678 17.5173C16.6574 17.4446 16.5383 17.3821 16.4496 17.279C16.2883 17.0944 16.2084 16.8765 16.2041 16.6309V13.9777C16.2041 13.9777 16.2157 13.9734 16.2215 13.969C16.2171 13.9647 16.2113 13.9618 16.2041 13.9588C16.2055 13.9225 16.207 13.8876 16.207 13.8528C16.207 13.4111 16.5048 13.1917 16.9277 13.3195C16.9349 13.3224 16.9407 13.3268 16.948 13.3326C17.1456 13.4416 17.2313 13.6159 17.2255 13.8441C17.2255 13.908 17.2255 13.9748 17.227 14.0388C17.227 14.062 17.227 14.0838 17.227 14.1071V15.5499C17.227 15.871 17.227 16.1921 17.2226 16.5132C17.2226 16.5728 17.2415 16.612 17.2967 16.6396C17.3999 16.6934 17.5016 16.7486 17.6048 16.8038C17.612 16.8082 17.6178 16.8111 17.6251 16.814C17.9506 16.9927 18.2775 17.17 18.603 17.3473C18.6088 17.3502 18.6161 17.3545 18.6219 17.3589C18.6771 17.3879 18.7309 17.4214 18.7861 17.4475C18.9604 17.5289 19.0781 17.6582 19.1319 17.8442C19.1319 17.8515 19.1333 17.8602 19.1333 17.8674C19.1391 17.9968 19.1086 18.1174 19.0433 18.2263Z" fill="url(#paint1_linear_2384_203)"/>
<path d="M19.1343 17.8675C19.1402 17.9968 19.1096 18.1174 19.0443 18.2264C19.0312 18.2467 19.0181 18.2671 19.0036 18.286C18.9978 18.2918 18.9905 18.2976 18.9847 18.3049C18.9571 18.3296 18.928 18.3499 18.899 18.3673C18.7813 18.4385 18.6519 18.4603 18.511 18.4371C18.5008 18.4371 18.4892 18.4342 18.4776 18.4327C18.264 18.3208 18.0489 18.209 17.8339 18.0971C17.831 18.0971 17.8281 18.0942 17.8252 18.0927C17.6189 17.9576 17.3951 17.8544 17.18 17.7353C17.058 17.667 16.9316 17.606 16.8066 17.542C16.795 17.5333 16.7819 17.5246 16.7688 17.5173C16.6584 17.4447 16.5393 17.3822 16.4506 17.279C16.2894 17.0945 16.2094 16.8765 16.2051 16.631V13.9778C16.2051 13.9778 16.2167 13.9734 16.2225 13.9691C16.2182 13.9647 16.2123 13.9618 16.2051 13.9589C16.2065 13.9226 16.208 13.8877 16.208 13.8528C16.208 13.4111 16.5059 13.1917 16.9287 13.3196C16.9359 13.3225 16.9418 13.3268 16.949 13.3327C17.1466 13.4416 17.2324 13.616 17.2265 13.8441C17.2265 13.908 17.2265 13.9749 17.228 14.0388C17.228 14.0621 17.228 14.0839 17.228 14.1071V15.5499C17.228 15.8711 17.228 16.1922 17.2236 16.5133C17.2236 16.5729 17.2425 16.6121 17.2977 16.6397C17.4009 16.6935 17.5026 16.7487 17.6058 16.8039C17.613 16.8083 17.6189 16.8112 17.6261 16.8141C17.9516 16.9928 18.2785 17.1701 18.604 17.3473C18.6098 17.3502 18.6171 17.3546 18.6229 17.3589C18.6781 17.388 18.7319 17.4214 18.7871 17.4476C18.9614 17.5289 19.0791 17.6583 19.1329 17.8442C19.1329 17.8515 19.1343 17.8602 19.1343 17.8675Z" fill="#F3F3F3"/>
<defs>
<linearGradient id="paint0_linear_2384_203" x1="13.6651" y1="7.16521" x2="13.1054" y2="3.95456" gradientUnits="userSpaceOnUse">
<stop stop-color="#3D5BC0"/>
<stop offset="1" stop-color="#4B8DFF"/>
</linearGradient>
<linearGradient id="paint1_linear_2384_203" x1="18.8272" y1="20.2949" x2="15.4298" y2="15.0068" gradientUnits="userSpaceOnUse">
<stop stop-color="#3D5BC0"/>
<stop offset="1" stop-color="#4B8DFF"/>
</linearGradient>
</defs>
</svg>
