<svg width="24" height="24" viewBox="0 0 24 24" fill="none" xmlns="http://www.w3.org/2000/svg">
<path d="M7.77292 3.32477V21.7894H6.92865C5.42001 21.7894 4.19754 20.567 4.19754 19.0583V6.05588C4.19754 4.54783 5.42001 3.32477 6.92865 3.32477H7.77292Z" fill="url(#paint0_linear_2384_241)"/>
<path d="M18.6254 6.05588V19.0583C18.6254 20.567 17.4024 21.7894 15.8943 21.7894H7.77344V3.32477H15.8943C17.4024 3.32477 18.6254 4.54783 18.6254 6.05588Z" fill="#5CAEFF"/>
<path d="M5.45523 5.89062H2.9432C2.42414 5.89062 2.00335 6.31141 2.00335 6.83048C2.00335 7.34955 2.42414 7.77034 2.9432 7.77034H5.45523C5.9743 7.77034 6.39509 7.34955 6.39509 6.83048C6.39509 6.31141 5.9743 5.89062 5.45523 5.89062Z" fill="#5CAEFF"/>
<path d="M5.45523 9.70758H2.9432C2.42414 9.70758 2.00335 10.1284 2.00335 10.6474C2.00335 11.1665 2.42414 11.5873 2.9432 11.5873H5.45523C5.9743 11.5873 6.39509 11.1665 6.39509 10.6474C6.39509 10.1284 5.9743 9.70758 5.45523 9.70758Z" fill="#5CAEFF"/>
<path d="M5.45523 13.5245H2.9432C2.42414 13.5245 2.00335 13.9453 2.00335 14.4644C2.00335 14.9835 2.42414 15.4043 2.9432 15.4043H5.45523C5.9743 15.4043 6.39509 14.9835 6.39509 14.4644C6.39509 13.9453 5.9743 13.5245 5.45523 13.5245Z" fill="#5CAEFF"/>
<path d="M5.45523 17.3415H2.9432C2.42414 17.3415 2.00335 17.7623 2.00335 18.2813C2.00335 18.8004 2.42414 19.2212 2.9432 19.2212H5.45523C5.9743 19.2212 6.39509 18.8004 6.39509 18.2813C6.39509 17.7623 5.9743 17.3415 5.45523 17.3415Z" fill="#5CAEFF"/>
<path d="M11.5218 12.482L17.2818 7.20203L21.1218 10.322C21.2018 11.682 21.3618 14.45 21.3618 14.642C21.3618 14.834 18.6418 16.962 17.2818 18.002L12.4818 15.842L11.5218 12.482Z" fill="white"/>
<path fill-rule="evenodd" clip-rule="evenodd" d="M10.976 12.5741C10.976 9.42042 13.4474 6.86383 16.496 6.86383C19.5446 6.86383 22.0159 9.42042 22.0159 12.5741C22.0159 15.7279 19.5446 18.2844 16.496 18.2844C13.4474 18.2844 10.976 15.7279 10.976 12.5741ZM16.082 8.57692C16.082 8.34039 16.2673 8.14865 16.496 8.14865C18.8586 8.14865 20.7739 10.13 20.7739 12.5741C20.7739 15.0183 18.8586 16.9996 16.496 16.9996C14.1333 16.9996 12.218 15.0183 12.218 12.5741C12.218 12.3376 12.4033 12.1459 12.632 12.1459C12.8606 12.1459 13.046 12.3376 13.046 12.5741C13.046 14.5452 14.5906 16.1431 16.496 16.1431C18.4013 16.1431 19.9459 14.5452 19.9459 12.5741C19.9459 10.6031 18.4013 9.0052 16.496 9.0052C16.2673 9.0052 16.082 8.81345 16.082 8.57692ZM16.496 9.86174C16.2673 9.86174 16.082 10.0535 16.082 10.29C16.082 10.5265 16.2673 10.7183 16.496 10.7183C17.4868 10.7183 18.29 11.5492 18.29 12.5741C18.29 13.5991 17.4868 14.43 16.496 14.43C16.2673 14.43 16.082 14.6217 16.082 14.8583C16.082 15.0948 16.2673 15.2865 16.496 15.2865C17.944 15.2865 19.1179 14.0722 19.1179 12.5741C19.1179 11.0761 17.944 9.86174 16.496 9.86174Z" fill="url(#paint1_linear_2384_241)"/>
<defs>
<linearGradient id="paint0_linear_2384_241" x1="6.67297" y1="18.737" x2="2.97744" y2="17.6232" gradientUnits="userSpaceOnUse">
<stop stop-color="#3D5BC0"/>
<stop offset="1" stop-color="#4B8DFF"/>
</linearGradient>
<linearGradient id="paint1_linear_2384_241" x1="18.6195" y1="16.3965" x2="14.8058" y2="10.6583" gradientUnits="userSpaceOnUse">
<stop stop-color="#3D5BC0"/>
<stop offset="1" stop-color="#4B8DFF"/>
</linearGradient>
</defs>
</svg>
