<svg width="20" height="14" viewBox="0 0 20 14" fill="none" xmlns="http://www.w3.org/2000/svg">
<path d="M20.0011 11.1187C19.7464 11.567 19.4557 11.9861 19.046 12.3112C18.389 12.8331 17.639 13.0742 16.8024 13.0732C13.7628 13.07 10.7238 13.0721 7.68428 13.0721C6.14207 13.0721 4.59881 13.094 3.05711 13.0643C1.73514 13.0382 0.741445 12.4135 0.0906356 11.259C-0.125431 10.876 0.0634968 10.5728 0.508156 10.5722C6.8341 10.5722 13.1601 10.5728 19.4865 10.5681C19.7235 10.5681 19.8764 10.6667 20.0011 10.8457V11.1192V11.1187Z" fill="#5CAEFF"/>
<path d="M1.7168 9.99444C1.9313 8.08011 2.68388 6.42986 4.01368 5.05518C5.33722 3.68623 6.95772 2.87833 8.83812 2.5939C8.67425 1.85123 8.8256 1.36795 9.31514 1.04542C9.73996 0.76516 10.2958 0.772988 10.7112 1.06421C11.1877 1.39822 11.3344 1.8862 11.1601 2.58816C13.4256 2.94931 15.2768 4.02182 16.6656 5.85421C17.5893 7.07336 18.1159 8.45588 18.2803 9.99496H1.7168V9.99444ZM9.55312 4.17369C9.54008 4.17473 9.52077 4.1763 9.50146 4.17839C7.02608 4.42733 5.19996 5.64649 4.03612 7.84682C3.9093 8.08689 3.80909 8.34367 3.71776 8.59992C3.63321 8.83738 3.74907 9.05711 3.97245 9.13643C4.1833 9.21159 4.39571 9.10982 4.49487 8.8854C4.52097 8.8259 4.54132 8.76432 4.56637 8.70378C5.29703 6.92253 6.58299 5.75035 8.43261 5.2154C8.8042 5.10789 9.19771 5.07344 9.58183 5.01186C9.84904 4.96906 10.016 4.79475 9.99831 4.56042C9.98108 4.33965 9.7932 4.17369 9.55312 4.17317V4.17369Z" fill="url(#paint0_linear_2384_275)"/>
<path d="M9.55363 4.17523C9.7937 4.17523 9.98158 4.34172 9.99881 4.56248C10.0171 4.79681 9.84954 4.97113 9.58233 5.01393C9.19769 5.07499 8.8047 5.10995 8.43311 5.21747C6.58349 5.75241 5.29805 6.9246 4.56687 8.70584C4.54234 8.76586 4.52199 8.82797 4.49537 8.88747C4.39621 9.11241 4.1838 9.21365 3.97295 9.1385C3.74958 9.05917 3.63372 8.83945 3.71826 8.60199C3.8096 8.34521 3.9098 8.08896 4.03662 7.84889C5.20046 5.64856 7.02659 4.4294 9.50196 4.18045C9.52127 4.17836 9.54058 4.1768 9.55363 4.17575V4.17523Z" fill="white"/>
<defs>
<linearGradient id="paint0_linear_2384_275" x1="0.480699" y1="10.7553" x2="8.91359" y2="-4.39395" gradientUnits="userSpaceOnUse">
<stop stop-color="#4B8DFF"/>
<stop offset="1" stop-color="#2E57E2"/>
</linearGradient>
</defs>
</svg>
