<svg width="21" height="21" viewBox="0 0 21 21" fill="none" xmlns="http://www.w3.org/2000/svg">
<path d="M4.65399 20.8627H3.05694C2.73675 20.8627 2.4774 20.6033 2.4774 20.2831V18.4263H6.17148L5.17815 20.5304C5.0826 20.7332 4.87824 20.8627 4.65399 20.8627Z" fill="#C7D2F8"/>
<path d="M19.1264 0.921875H2.68317C1.70982 0.921875 0.920759 1.71093 0.920759 2.68428V16.6712C0.920759 17.6446 1.70982 18.4337 2.68317 18.4337H19.1264C20.0997 18.4337 20.8888 17.6446 20.8888 16.6712V2.68428C20.8888 1.71093 20.0997 0.921875 19.1264 0.921875Z" fill="url(#paint0_linear_2384_261)"/>
<path d="M17.9749 3.20538H3.8354C3.51641 3.20538 3.25781 3.46398 3.25781 3.78297V15.5723C3.25781 15.8913 3.51641 16.1499 3.8354 16.1499H17.9749C18.2938 16.1499 18.5524 15.8913 18.5524 15.5723V3.78297C18.5524 3.46398 18.2938 3.20538 17.9749 3.20538Z" fill="#C7D2F8"/>
<path d="M17.1537 20.8627H18.7507C19.0709 20.8627 19.3302 20.6033 19.3302 20.2831V18.4263H15.6362L16.6295 20.5304C16.725 20.7332 16.9294 20.8627 17.1537 20.8627Z" fill="#C7D2F8"/>
<path d="M8.42172 7.96995C9.37254 7.96995 10.1459 8.74332 10.1459 9.69414C10.1459 10.645 9.37254 11.4183 8.42172 11.4183C7.4709 11.4183 6.69753 10.645 6.69753 9.69414C6.69753 8.74332 7.4709 7.96995 8.42172 7.96995ZM8.42172 6.79995C6.82311 6.79995 5.52753 8.09592 5.52753 9.69414C5.52753 11.2924 6.8235 12.5883 8.42172 12.5883C10.0199 12.5883 11.3159 11.2924 11.3159 9.69414C11.3159 8.09592 10.0203 6.79995 8.42172 6.79995Z" fill="url(#paint1_linear_2384_261)"/>
<path d="M8.40261 5.99109C8.07618 5.99109 7.81176 6.25551 7.81176 6.58194V12.8352C7.81176 13.1616 8.07618 13.426 8.40261 13.426C8.72904 13.426 8.99346 13.1616 8.99346 12.8352V6.58194C8.99346 6.25551 8.72904 5.99109 8.40261 5.99109Z" fill="url(#paint2_linear_2384_261)"/>
<path d="M11.5484 9.11772H5.29509C4.96866 9.11772 4.70424 9.38214 4.70424 9.70857C4.70424 10.035 4.96866 10.2994 5.29509 10.2994H11.5484C11.8748 10.2994 12.1392 10.035 12.1392 9.70857C12.1392 9.38214 11.8748 9.11772 11.5484 9.11772Z" fill="url(#paint3_linear_2384_261)"/>
<rect x="15.0787" y="7.04578" width="1.56" height="5.07" rx="0.78" fill="url(#paint4_linear_2384_261)"/>
<defs>
<linearGradient id="paint0_linear_2384_261" x1="16.1248" y1="5.26962" x2="5.52996" y2="18.9367" gradientUnits="userSpaceOnUse">
<stop stop-color="#3D5BC0"/>
<stop offset="1" stop-color="#4B8DFF"/>
</linearGradient>
<linearGradient id="paint1_linear_2384_261" x1="10.3654" y1="9.4111" x2="10.1619" y2="10.859" gradientUnits="userSpaceOnUse">
<stop stop-color="#3D5BC0"/>
<stop offset="1" stop-color="#4B8DFF"/>
</linearGradient>
<linearGradient id="paint2_linear_2384_261" x1="10.3654" y1="9.4111" x2="10.1619" y2="10.859" gradientUnits="userSpaceOnUse">
<stop stop-color="#3D5BC0"/>
<stop offset="1" stop-color="#4B8DFF"/>
</linearGradient>
<linearGradient id="paint3_linear_2384_261" x1="10.3654" y1="9.4111" x2="10.1619" y2="10.859" gradientUnits="userSpaceOnUse">
<stop stop-color="#3D5BC0"/>
<stop offset="1" stop-color="#4B8DFF"/>
</linearGradient>
<linearGradient id="paint4_linear_2384_261" x1="16.2665" y1="9.37793" x2="15.8861" y2="10.2111" gradientUnits="userSpaceOnUse">
<stop stop-color="#3D5BC0"/>
<stop offset="1" stop-color="#4B8DFF"/>
</linearGradient>
</defs>
</svg>
