<svg width="24" height="24" viewBox="0 0 24 24" fill="none" xmlns="http://www.w3.org/2000/svg">
<path d="M11.3803 4.93246C11.3793 5.23158 11.2044 5.45918 10.9116 5.5166C10.2141 5.65389 9.54127 5.86008 8.91537 6.20096C7.87917 6.76421 7.05439 7.54933 6.43893 8.55838C5.97173 9.32418 5.68514 10.1537 5.57238 11.0359C5.42883 12.153 5.56194 13.2445 5.98843 14.2938C6.17479 14.7531 6.41753 15.1812 6.6942 15.591C6.88734 15.8922 6.86281 16.1448 6.61224 16.3959C6.07613 16.9336 5.53897 17.4713 5.0013 18.0074C4.7121 18.2955 4.39211 18.3044 4.12222 17.9928C3.61013 17.4013 3.23793 16.7185 2.90332 16.0154C2.87461 15.9543 2.8369 15.8442 2.8369 15.8442L2.78795 15.7084C2.78795 15.7084 2.76289 15.6557 2.74984 15.6296C2.4904 15.0611 2.32492 14.4634 2.20381 13.8527C2.05504 13.101 1.97517 12.3409 2.00962 11.5741C2.06391 10.3818 2.29204 9.22761 2.75037 8.11832C3.08446 7.30868 3.51668 6.55906 4.04183 5.86165C4.64633 5.05774 5.36305 4.36973 6.18001 3.78246C7.21047 3.04224 8.34481 2.53223 9.5705 2.21954C9.96515 2.11879 10.3666 2.04989 10.7706 1.99873C10.8092 1.99403 10.8759 1.99873 10.8759 1.99873L10.9542 1.99873C10.9542 1.99873 11.0295 2.05511 11.0849 2.08278C11.2869 2.18405 11.3782 2.35579 11.3793 2.57086C11.384 3.35806 11.3835 4.14526 11.3803 4.93246Z" fill="url(#paint0_linear_2384_227)"/>
<path d="M21.8298 12.795C21.9829 12.9332 22.0074 13.1562 22.0074 13.3624C21.9421 13.6871 21.8873 14.0138 21.8101 14.3354C21.7203 14.7087 21.6394 15.0861 21.4624 15.4322C21.3872 15.7433 21.2484 16.0299 21.1121 16.3154C20.7556 17.0614 20.3187 17.7572 19.7789 18.3868C19.2454 19.0095 18.6524 19.5712 18.0004 20.0656C17.4048 20.5171 16.7554 20.8846 16.0647 21.1785C15.1716 21.5591 14.2471 21.8143 13.2808 21.925C13.1049 21.9448 12.7499 21.9949 12.7499 21.9949H11.5002C11.5002 21.9949 11.1192 21.948 10.9297 21.925C9.63038 21.7679 8.41565 21.3691 7.27504 20.7291C6.88301 20.5093 6.51133 20.2619 6.14749 20.0003C5.94286 19.8536 5.76537 19.6861 5.79513 19.3948C5.8087 19.2601 5.84681 19.1474 5.94599 19.0492C6.51029 18.4901 7.06937 17.9264 7.63262 17.3668C7.85605 17.1444 8.12749 17.1157 8.3932 17.2978C9.18614 17.8418 10.0501 18.2156 10.9975 18.3805C11.5535 18.4766 12.1126 18.5006 12.6805 18.4505C13.521 18.3758 14.3108 18.1503 15.0588 17.7729C16.0465 17.2744 16.8483 16.5608 17.469 15.6441C17.5086 15.5856 17.5514 15.5293 17.5932 15.4713C17.7764 15.108 17.9868 14.7593 18.1278 14.3735C18.2661 13.9956 18.3846 13.614 18.453 13.2173C18.5255 12.7981 18.7343 12.6201 19.1551 12.6201C19.8248 12.6201 20.4946 12.6342 21.1638 12.6148C21.4301 12.6071 21.66 12.6418 21.8298 12.795Z" fill="url(#paint1_linear_2384_227)"/>
<path d="M21.9681 10.5473C21.9921 10.7501 21.9321 10.958 21.7715 11.0841C21.6294 11.1957 21.4415 11.3074 21.2624 11.3032C20.5415 11.286 19.8201 11.2995 19.0986 11.2975C18.7598 11.2964 18.5396 11.1325 18.4774 10.8C18.3412 10.0671 18.0896 9.37696 17.7461 8.71765C17.4694 8.28595 17.1807 7.86364 16.8279 7.48935C15.9107 6.51579 14.804 5.87789 13.4958 5.58974C13.2975 5.54641 13.0814 5.55424 12.9169 5.39763C12.7828 5.26974 12.7071 5.1241 12.7076 4.93461C12.7112 4.16046 12.7076 3.38631 12.7112 2.61216C12.7128 2.21334 13.0041 1.95285 13.4003 2.00714C15.2566 2.26345 16.927 2.95878 18.385 4.14271C19.4839 5.03483 20.3677 6.10497 20.9962 7.37503C21.2044 7.79577 21.4289 8.21443 21.537 8.6785C21.7009 9.13318 21.835 9.59412 21.8977 10.0759C21.9186 10.2352 21.9681 10.5473 21.9681 10.5473Z" fill="url(#paint2_linear_2384_227)"/>
<path d="M12.1541 6.91852C9.37206 6.91852 7.11663 9.17395 7.11663 11.956C7.11663 14.738 9.37206 16.9934 12.1541 16.9934C14.9361 16.9934 17.1915 14.738 17.1915 11.956C17.1915 9.17395 14.9361 6.91852 12.1541 6.91852ZM14.3031 13.3072C14.2903 13.3271 14.2775 13.347 14.2633 13.3654C14.2576 13.3711 14.2505 13.3768 14.2449 13.3839C14.2179 13.408 14.1895 13.4279 14.1611 13.4449C14.0461 13.5145 13.9198 13.5358 13.7821 13.5131C13.7722 13.5131 13.7608 13.5102 13.7495 13.5088C13.5408 13.3995 13.3308 13.2902 13.1207 13.1809C13.1179 13.1809 13.115 13.1781 13.1122 13.1767C12.9106 13.0447 12.692 12.9439 12.482 12.8275C12.3627 12.7608 12.2392 12.7012 12.1172 12.6387C12.1058 12.6302 12.093 12.6217 12.0803 12.6146C11.9724 12.5436 11.856 12.4826 11.7694 12.3818C11.6119 12.2015 11.5338 11.9886 11.5295 11.7487V9.15691C11.5295 9.15691 11.5409 9.15265 11.5466 9.1484C11.5423 9.14414 11.5366 9.1413 11.5295 9.13846C11.531 9.10298 11.5324 9.06891 11.5324 9.03484C11.5324 8.60335 11.8234 8.38902 12.2364 8.51392C12.2435 8.51676 12.2492 8.52102 12.2563 8.5267C12.4493 8.63315 12.5331 8.80348 12.5274 9.02633C12.5274 9.08878 12.5274 9.15407 12.5288 9.21653C12.5288 9.23924 12.5288 9.26053 12.5288 9.28324V10.6927C12.5288 11.0064 12.5288 11.3201 12.5245 11.6338C12.5245 11.692 12.543 11.7303 12.5969 11.7573C12.6977 11.8098 12.7971 11.8637 12.8978 11.9176C12.9049 11.9219 12.9106 11.9247 12.9177 11.9276C13.2357 12.1022 13.555 12.2753 13.873 12.4485C13.8787 12.4513 13.8858 12.4556 13.8914 12.4599C13.9454 12.4882 13.9979 12.5209 14.0518 12.5464C14.2222 12.6259 14.3371 12.7523 14.3896 12.9339C14.3896 12.941 14.3911 12.9496 14.3911 12.9566C14.3967 13.083 14.3669 13.2008 14.3031 13.3072Z" fill="#5CAEFF"/>
<path d="M14.3911 12.9568C14.3968 13.0831 14.367 13.2009 14.3031 13.3074C14.2903 13.3272 14.2775 13.3471 14.2633 13.3656C14.2577 13.3712 14.2506 13.3769 14.2449 13.384C14.2179 13.4081 14.1895 13.428 14.1611 13.4451C14.0462 13.5146 13.9198 13.5359 13.7822 13.5132C13.7722 13.5132 13.7609 13.5103 13.7495 13.5089C13.5409 13.3996 13.3308 13.2903 13.1207 13.181C13.1179 13.181 13.115 13.1782 13.1122 13.1768C12.9107 13.0448 12.6921 12.944 12.482 12.8276C12.3628 12.7609 12.2393 12.7013 12.1172 12.6388C12.1059 12.6303 12.0931 12.6218 12.0803 12.6147C11.9724 12.5437 11.856 12.4827 11.7695 12.3819C11.6119 12.2017 11.5338 11.9887 11.5296 11.7489V9.15704C11.5296 9.15704 11.5409 9.15279 11.5466 9.14853C11.5424 9.14427 11.5367 9.14143 11.5296 9.13859C11.531 9.10311 11.5324 9.06904 11.5324 9.03498C11.5324 8.60348 11.8234 8.38915 12.2364 8.51406C12.2435 8.51689 12.2492 8.52115 12.2563 8.52683C12.4493 8.63328 12.5331 8.80361 12.5274 9.02646C12.5274 9.08891 12.5274 9.15421 12.5288 9.21666C12.5288 9.23937 12.5288 9.26066 12.5288 9.28337V10.6928C12.5288 11.0065 12.5288 11.3202 12.5246 11.6339C12.5246 11.6921 12.543 11.7304 12.597 11.7574C12.6977 11.8099 12.7971 11.8638 12.8979 11.9178C12.905 11.922 12.9107 11.9249 12.9178 11.9277C13.2357 12.1023 13.5551 12.2755 13.873 12.4486C13.8787 12.4515 13.8858 12.4557 13.8915 12.46C13.9454 12.4884 13.9979 12.521 14.0519 12.5466C14.2222 12.6261 14.3372 12.7524 14.3897 12.9341C14.3897 12.9412 14.3911 12.9497 14.3911 12.9568Z" fill="white"/>
<defs>
<linearGradient id="paint0_linear_2384_227" x1="8.49669" y1="15.5423" x2="2.6516" y2="10.2831" gradientUnits="userSpaceOnUse">
<stop stop-color="#3D5BC0"/>
<stop offset="1" stop-color="#4B8DFF"/>
</linearGradient>
<linearGradient id="paint1_linear_2384_227" x1="17.0187" y1="20.4441" x2="14.7995" y2="14.4735" gradientUnits="userSpaceOnUse">
<stop stop-color="#3D5BC0"/>
<stop offset="1" stop-color="#4B8DFF"/>
</linearGradient>
<linearGradient id="paint2_linear_2384_227" x1="19.1452" y1="9.76536" x2="16.0798" y2="4.99674" gradientUnits="userSpaceOnUse">
<stop stop-color="#3D5BC0"/>
<stop offset="1" stop-color="#4B8DFF"/>
</linearGradient>
</defs>
</svg>
