<svg width="48" height="52" viewBox="0 0 48 52" fill="none" xmlns="http://www.w3.org/2000/svg">
<path d="M18.0487 16.7143C18.0607 16.7144 19.5039 16.7275 20.8182 17.3041C20.8332 17.3107 22.0935 17.8675 23.0653 18.8656C23.0653 18.8656 24.0391 19.8659 24.5731 21.1557C24.5731 21.1557 25.1249 22.4887 25.1249 23.9379V24.5717C25.1249 24.601 25.13 28.284 26.288 30.2846C26.288 30.2846 26.4789 30.6165 26.4794 30.9984C26.4794 30.9984 26.4803 31.3811 26.2899 31.7123C26.2899 31.7123 26.0988 32.0438 25.7684 32.2358C25.7571 32.2422 25.4318 32.4277 25.0565 32.4291H10.9462C10.9346 32.429 10.5566 32.4247 10.2313 32.2358C10.2313 32.2358 9.90131 32.0434 9.71082 31.7123C9.71082 31.7123 9.52005 31.3806 9.52039 30.9984C9.52046 30.9849 9.52421 30.6104 9.71179 30.2856C9.72442 30.2636 10.8748 28.2563 10.8749 24.5717V23.8568C10.8749 23.8303 10.878 22.42 11.4188 21.1156C11.4269 21.0963 11.9729 19.7918 12.9755 18.7934C12.9915 18.7775 13.9961 17.7826 15.3046 17.2465C15.335 17.2341 16.64 16.7064 18.0487 16.7143ZM18.0409 18.143C18.0409 18.143 16.9005 18.1365 15.8456 18.5688C15.8328 18.574 14.7861 19.0058 13.9833 19.8051C13.9833 19.8051 13.1748 20.6104 12.7382 21.6635C12.7274 21.6896 12.3021 22.7304 12.3036 23.8568V24.5717C12.3036 24.6025 12.2986 28.6695 10.9491 31.0004H25.0507C25.0507 31.0004 23.6962 28.6597 23.6962 24.5717V23.9379C23.6962 23.9379 23.6965 21.5614 22.0419 19.8617C22.0219 19.8413 20.3712 18.1607 18.0409 18.143Z" fill="#1C1C1C"/>
<path d="M21.5714 32.4286V31.7143C21.5714 31.3198 21.2516 31 20.8572 31C20.4627 31 20.1429 31.3198 20.1429 31.7143V32.4286C20.1429 33.3162 19.5152 33.9438 19.5152 33.9438C18.8876 34.5714 18 34.5714 18 34.5714C17.1124 34.5714 16.4848 33.9438 16.4848 33.9438C15.8572 33.3162 15.8572 32.4286 15.8572 32.4286V31.7143C15.8572 31.3198 15.5374 31 15.1429 31C14.7484 31 14.4286 31.3198 14.4286 31.7143L14.4286 32.4286C14.4286 33.9079 15.4746 34.954 15.4746 34.954C16.5207 36 18 36 18 36C19.4794 36 20.5254 34.954 20.5254 34.954C21.5714 33.9079 21.5714 32.4286 21.5714 32.4286Z" fill="#1C1C1C"/>
<rect x="15" y="9.5" width="29" height="18" rx="9" fill="#FF2D55"/>
<path d="M26.6989 13.7727V22.5H25.642V15.3068H25.5739C25.5341 15.3864 25.4318 15.4773 25.267 15.5795C25.1023 15.679 24.8892 15.767 24.6278 15.8438C24.3665 15.9176 24.0682 15.9545 23.733 15.9545V15.0682C24.071 15.0682 24.3636 15.0071 24.6108 14.8849C24.858 14.7628 25.0639 14.6193 25.2287 14.4545C25.3963 14.2898 25.5227 14.1406 25.608 14.0071C25.696 13.8736 25.7472 13.7955 25.7614 13.7727H26.6989ZM29.2003 22.5V21.733L32.081 18.5795C32.419 18.2102 32.6974 17.8892 32.9162 17.6165C33.1349 17.3409 33.2969 17.0824 33.402 16.8409C33.5099 16.5966 33.5639 16.3409 33.5639 16.0739C33.5639 15.767 33.4901 15.5014 33.3423 15.277C33.1974 15.0526 32.9986 14.8793 32.7457 14.7571C32.4929 14.6349 32.2088 14.5739 31.8935 14.5739C31.5582 14.5739 31.2656 14.6435 31.0156 14.7827C30.7685 14.919 30.5767 15.1108 30.4403 15.358C30.3068 15.6051 30.2401 15.8949 30.2401 16.2273H29.2344C29.2344 15.7159 29.3523 15.267 29.5881 14.8807C29.8239 14.4943 30.1449 14.1932 30.5511 13.9773C30.9602 13.7614 31.419 13.6534 31.9276 13.6534C32.4389 13.6534 32.892 13.7614 33.2869 13.9773C33.6818 14.1932 33.9915 14.4844 34.2159 14.8509C34.4403 15.2173 34.5526 15.625 34.5526 16.0739C34.5526 16.3949 34.4943 16.7088 34.3778 17.0156C34.2642 17.3196 34.0653 17.6591 33.7812 18.0341C33.5 18.4062 33.1094 18.8608 32.6094 19.3977L30.6491 21.4943V21.5625H34.706V22.5H29.2003Z" fill="white"/>
</svg>
