<svg width="32" height="32" viewBox="0 0 32 32" fill="none" xmlns="http://www.w3.org/2000/svg">
<rect width="32" height="32" rx="10" fill="url(#paint0_linear_2201_16959)"/>
<path d="M12.75 16C14.5449 16 16 14.5449 16 12.75C16 10.9551 14.5449 9.5 12.75 9.5C10.9551 9.5 9.5 10.9551 9.5 12.75C9.5 14.5449 10.9551 16 12.75 16ZM7.5 19C7.5 17.8954 8.39543 17 9.5 17H16C17.1046 17 18 17.8954 18 19C18 19 18 23 12.75 23C7.5 23 7.5 19 7.5 19Z" fill="white"/>
<path d="M20.4992 21.5C19.6409 21.5 18.9668 21.3619 18.4373 21.1449C18.6743 20.6976 18.8096 20.2745 18.8875 19.9363C18.9408 19.7047 18.9688 19.5065 18.9835 19.3575C18.9908 19.2828 18.995 19.2197 18.9973 19.1701L19 19.0625V18.75C19 18.0852 18.7641 17.4755 18.3714 17H22.9992C23.8276 17 24.4992 17.6716 24.4992 18.5C24.4992 18.5 24.4992 21.5 20.4992 21.5Z" fill="white"/>
<path d="M20.5 16C21.8807 16 23 14.8807 23 13.5C23 12.1193 21.8807 11 20.5 11C19.1193 11 18 12.1193 18 13.5C18 14.8807 19.1193 16 20.5 16Z" fill="white"/>
<defs>
<linearGradient id="paint0_linear_2201_16959" x1="19.5366" y1="32.0185" x2="11.4034" y2="4.80118" gradientUnits="userSpaceOnUse">
<stop stop-color="#3D5BC0"/>
<stop offset="1" stop-color="#4B8DFF"/>
</linearGradient>
</defs>
</svg>
